# xmcd
#
# Track frame offsets:
#	150
#	13115
#	33135
#	47615
#	62307
#	89072
#	105907
#	124372
#	138947
#	154802
#	166030
#	179045
#
# Disc length: 2512 seconds
#
# Revision: 1
# Processed by: cddbd v1.4PL0 Copyright (c) Steve Scherf et al.
# Submitted via: audiograbber 1.81.03
#
DISCID=9409ce0c
DTITLE=Beaulieu - Le Club
DYEAR=2000
DGENRE=Country
TTITLE0=Le club
TTITLE1=Trop petit
TTITLE2=Le bain
TTITLE3=Donnes-y d'l'eau
TTITLE4=Les trottoirs
TTITLE5=Godbout
TTITLE6=Les bombes
TTITLE7=Le char
TTITLE8=Dormir
TTITLE9=Le chat
TTITLE10=Enwoèye
TTITLE11=Pouèl
EXTD=
EXTT0=
EXTT1=
EXTT2=
EXTT3=
EXTT4=
EXTT5=
EXTT6=
EXTT7=
EXTT8=
EXTT9=
EXTT10=
EXTT11=
PLAYORDER=
